<svg width="16" height="21" viewBox="0 0 16 21" fill="none" xmlns="http://www.w3.org/2000/svg">
<path d="M6 18.9999H10C10 20.0999 9.1 20.9999 8 20.9999C6.9 20.9999 6 20.0999 6 18.9999ZM16 16.3499V17.9999H0V16.3499L2 14.4699V9.31991C2 6.39991 3.56 4.09992 6 3.33992V2.95991C6 1.53991 7.49 0.459915 8.99 1.19991C9.64 1.51991 10 2.22991 10 2.95991V3.34991C12.44 4.09991 14 6.40991 14 9.32992V14.4799L16 16.3499ZM15 16.7699L13 14.8899V9.41992C13 6.94991 11.81 5.05992 9.87 4.31992C8.61 3.78992 7.23 3.81991 6.03 4.34991C4.15 5.10991 3 6.98991 3 9.41992V14.8899L1 16.7699V16.9999H15V16.7699Z" fill="white"/>
</svg>
