<svg width="18" height="20" viewBox="0 0 18 20" fill="none" xmlns="http://www.w3.org/2000/svg">
<path d="M6.99995 12.6497V7.34975L12 9.99975L6.99995 12.6497ZM14.77 8.31975C14 7.99975 13.57 7.81975 13.57 7.81975L15 7.05975C16.84 6.09975 17.53 3.82975 16.56 1.99975C15.59 0.169747 13.32 -0.530253 11.49 0.439747L2.99995 4.93975C1.70995 5.61975 0.929953 6.97975 0.999953 8.42975C1.06995 9.84975 1.92995 11.0997 3.21995 11.6797C3.24995 11.6897 4.41995 12.1797 4.41995 12.1797L2.99995 12.9297C1.16995 13.8997 0.469953 16.1697 1.43995 17.9997C2.40995 19.8297 4.67995 20.5297 6.50995 19.5597L15.01 15.0597C16.3 14.3797 17.07 13.0197 17 11.5697C16.93 10.1497 16.06 8.88975 14.77 8.31975V8.31975ZM14.54 14.1797L6.03995 18.6797C4.69995 19.3897 3.02995 18.8797 2.31995 17.5397C1.60995 16.1997 2.11995 14.5297 3.45995 13.8197L5.49995 12.7397V11.5297L4.80995 11.2497L3.69995 10.7897C2.70995 10.3797 2.04995 9.43975 1.99995 8.37975C1.94995 7.31975 2.51995 6.31975 3.45995 5.81975L11.96 1.31975C13.3 0.609747 14.97 1.11975 15.68 2.45975C16.39 3.79975 15.88 5.46975 14.54 6.17975L12.5 7.25975V8.46975L14.3 9.20975C15.29 9.61975 15.95 10.5597 16 11.6197C16.05 12.6797 15.48 13.6797 14.54 14.1797Z" fill="white"/>
</svg>
