<svg width="90" height="20" viewBox="0 0 90 20" fill="none" xmlns="http://www.w3.org/2000/svg">
<path d="M27.9727 3.12324C27.6435 1.89323 26.6768 0.926623 25.4468 0.597366C23.2197 1.78814e-07 14.285 0 14.285 0C14.285 0 5.35042 1.78814e-07 3.12323 0.597366C1.89323 0.926623 0.926623 1.89323 0.597366 3.12324C1.78814e-07 5.35042 0 10 0 10C0 10 1.78814e-07 14.6496 0.597366 16.8768C0.926623 18.1068 1.89323 19.0734 3.12323 19.4026C5.35042 20 14.285 20 14.285 20C14.285 20 23.2197 20 25.4468 19.4026C26.6768 19.0734 27.6435 18.1068 27.9727 16.8768C28.5701 14.6496 28.5701 10 28.5701 10C28.5701 10 28.5677 5.35042 27.9727 3.12324Z" fill="#FF0000"/>
<path d="M11.4253 14.2849L18.8477 9.99991L11.4253 5.71484V14.2849Z" fill="white"/>
<path d="M34.6024 13.0041L31.3945 1.41895H34.1932L35.3174 6.67059C35.6043 7.9641 35.8136 9.06711 35.95 9.97962H36.0323C36.1264 9.32581 36.3381 8.22986 36.665 6.68941L37.8291 1.41895H40.6278L37.3799 13.0041V18.5615H34.6001V13.0041H34.6024Z" fill="white"/>
<path d="M41.4697 18.1942C40.9053 17.8132 40.5031 17.2205 40.2632 16.4162C40.0257 15.6119 39.9058 14.5442 39.9058 13.2083V11.3903C39.9058 10.0427 40.0422 8.95854 40.315 8.14245C40.5878 7.32637 41.0135 6.729 41.592 6.35506C42.1706 5.98112 42.9302 5.79297 43.871 5.79297C44.7976 5.79297 45.5384 5.98347 46.0981 6.36447C46.6555 6.74546 47.0647 7.34283 47.3234 8.15186C47.5821 8.96324 47.7115 10.0427 47.7115 11.3903V13.2083C47.7115 14.5442 47.5845 15.6166 47.3329 16.4256C47.0812 17.237 46.672 17.8297 46.1075 18.2036C45.5431 18.5776 44.7764 18.7657 43.8098 18.7657C42.8126 18.768 42.0342 18.5752 41.4697 18.1942ZM44.6353 16.2328C44.7905 15.8236 44.8705 15.158 44.8705 14.2314V10.3297C44.8705 9.43126 44.7929 8.77274 44.6353 8.35882C44.4777 7.94255 44.2026 7.73559 43.8074 7.73559C43.4265 7.73559 43.156 7.94255 43.0008 8.35882C42.8432 8.7751 42.7656 9.43126 42.7656 10.3297V14.2314C42.7656 15.158 42.8408 15.8259 42.9914 16.2328C43.1419 16.642 43.4123 16.8466 43.8074 16.8466C44.2026 16.8466 44.4777 16.642 44.6353 16.2328Z" fill="white"/>
<path d="M56.8154 18.5644H54.6094L54.3648 17.031H54.3037C53.7039 18.1881 52.8055 18.7666 51.6061 18.7666C50.7759 18.7666 50.1621 18.4938 49.767 17.9506C49.3719 17.4049 49.1743 16.5536 49.1743 15.3965V6.03848H51.9942V15.2318C51.9942 15.7916 52.0553 16.189 52.1776 16.4266C52.2999 16.6641 52.5045 16.784 52.7914 16.784C53.036 16.784 53.2712 16.7088 53.497 16.5583C53.7228 16.4077 53.8874 16.2172 53.9979 15.9868V6.03613H56.8154V18.5644Z" fill="white"/>
<path d="M64.4755 3.68807H61.6768V18.5634H58.9181V3.68807H56.1194V1.4209H64.4755V3.68807Z" fill="white"/>
<path d="M71.2768 18.5644H69.0708L68.8262 17.031H68.7651C68.1654 18.1881 67.267 18.7666 66.0675 18.7666C65.2373 18.7666 64.6235 18.4938 64.2284 17.9506C63.8333 17.4049 63.6357 16.5536 63.6357 15.3965V6.03848H66.4556V15.2318C66.4556 15.7916 66.5167 16.189 66.639 16.4266C66.7613 16.6641 66.9659 16.784 67.2529 16.784C67.4974 16.784 67.7326 16.7088 67.9584 16.5583C68.1842 16.4077 68.3488 16.2172 68.4593 15.9868V6.03613H71.2768V18.5644Z" fill="white"/>
<path d="M80.609 8.03919C80.4373 7.24898 80.1621 6.67748 79.7812 6.32235C79.4002 5.96723 78.8757 5.79084 78.2078 5.79084C77.6904 5.79084 77.2059 5.93665 76.7567 6.23063C76.3075 6.52461 75.9594 6.90796 75.7148 7.38538H75.6937V0.786133H72.9773V18.5613H75.3056L75.5925 17.376H75.6537C75.8724 17.7993 76.1993 18.1309 76.6344 18.3779C77.0695 18.6225 77.554 18.7448 78.0855 18.7448C79.038 18.7448 79.7412 18.305 80.1904 17.4277C80.6396 16.5481 80.8653 15.177 80.8653 13.3097V11.3271C80.8653 9.92771 80.7783 8.82941 80.609 8.03919ZM78.0243 13.1497C78.0243 14.0622 77.9867 14.7772 77.9114 15.2946C77.8362 15.812 77.7115 16.1813 77.5328 16.3976C77.3564 16.6163 77.1165 16.7245 76.8178 16.7245C76.585 16.7245 76.371 16.6704 76.1734 16.5599C75.9759 16.4517 75.816 16.2871 75.6937 16.0707V8.96111C75.7877 8.62009 75.9524 8.34258 76.1852 8.12386C76.4157 7.90514 76.6697 7.79695 76.9401 7.79695C77.2271 7.79695 77.4481 7.90984 77.6034 8.13327C77.7609 8.35904 77.8691 8.73534 77.9303 9.26685C77.9914 9.79836 78.022 10.5533 78.022 11.534V13.1497H78.0243Z" fill="white"/>
<path d="M84.8657 13.8717C84.8657 14.676 84.8892 15.2781 84.9363 15.6803C84.9833 16.0824 85.0821 16.3741 85.2326 16.5599C85.3831 16.7433 85.6136 16.835 85.9264 16.835C86.3474 16.835 86.639 16.6704 86.7942 16.3435C86.9518 16.0166 87.0365 15.471 87.0506 14.709L89.4824 14.8524C89.4965 14.9606 89.5035 15.1111 89.5035 15.3016C89.5035 16.4587 89.186 17.3242 88.5534 17.8957C87.9208 18.4672 87.0247 18.7541 85.8676 18.7541C84.4777 18.7541 83.504 18.319 82.9466 17.4465C82.3869 16.574 82.1094 15.2264 82.1094 13.4013V11.2141C82.1094 9.33501 82.3987 7.96154 82.9772 7.09607C83.5558 6.23059 84.5459 5.79785 85.9499 5.79785C86.9165 5.79785 87.6597 5.97424 88.1771 6.32937C88.6945 6.68449 89.059 7.23482 89.2707 7.98506C89.4824 8.73529 89.5882 9.7701 89.5882 11.0918V13.2367H84.8657V13.8717ZM85.2232 7.9686C85.0797 8.14498 84.9857 8.43426 84.9363 8.83642C84.8892 9.23859 84.8657 9.84771 84.8657 10.6662V11.5646H86.9283V10.6662C86.9283 9.86182 86.9001 9.2527 86.846 8.83642C86.7919 8.42015 86.6931 8.12852 86.5496 7.95684C86.4062 7.78751 86.1851 7.70049 85.8864 7.70049C85.5854 7.70284 85.3643 7.79221 85.2232 7.9686Z" fill="white"/>
</svg>
